<?xml version="1.0" encoding="UTF-8"?>
<svg xmlns="http://www.w3.org/2000/svg" xmlns:xlink="http://www.w3.org/1999/xlink" width="16pt" height="16pt" viewBox="0 0 16 16" version="1.1">
<g id="surface1">
<path style=" stroke:none;fill-rule:evenodd;fill:rgb(0%,0%,0%);fill-opacity:1;" d="M 6.132812 0 L 2.625 2.464844 L 2.625 7.3125 L 9.816406 12.082031 L 9.816406 14.464844 L 2.625 9.695312 L 2.625 14.585938 L 5.292969 12.726562 L 10.261719 16 L 13.375 13.898438 L 13.375 9.695312 L 11.515625 8.425781 L 13.375 7.191406 L 13.375 2.261719 L 10.707031 0.484375 L 6.132812 3.636719 Z M 5.292969 5.453125 L 5.292969 1.777344 L 3.515625 3.070312 L 3.515625 6.625 L 8 9.65625 L 8.890625 10.261719 L 9.777344 10.828125 L 10.625 11.433594 L 12.363281 10.183594 L 10.625 9.050781 L 9.777344 8.445312 L 7.070312 6.625 L 12.363281 2.910156 L 10.625 1.777344 Z M 4.402344 12.121094 L 3.515625 11.515625 L 3.515625 12.726562 Z M 12.363281 11.515625 L 12.363281 13.332031 L 10.707031 14.445312 L 10.707031 12.605469 Z M 12.363281 6.625 L 12.363281 4.160156 L 8.890625 6.625 L 10.625 7.757812 Z M 12.363281 6.625 "/>
</g>
</svg>
