<svg xmlns="http://www.w3.org/2000/svg" width="80" height="80" viewBox="0 0 80 80">
  <g>
    <path d="M35.6.1A40.3,40.3,0,0,0,13.89,9.51a55,55,0,0,0-5.46,5.71A38.93,38.93,0,0,0,4.1,22.17,38.9,38.9,0,0,0,.22,34.76a62.32,62.32,0,0,0,0,10.44A38.7,38.7,0,0,0,4.1,57.78,39.9,39.9,0,0,0,32.83,79.44a44.09,44.09,0,0,0,14.34,0A40.16,40.16,0,0,0,79.78,45.2a62.32,62.32,0,0,0,0-10.44A38.9,38.9,0,0,0,75.9,22.17a37.23,37.23,0,0,0-7.12-10.09A37,37,0,0,0,57.69,4,39,39,0,0,0,45.35.21,66.13,66.13,0,0,0,35.6.1ZM50.76,40V61.48H44.1V52.31c.06-5,0-9.2,0-9.25s-.29.09-.54.32-.89.74-1.42,1.16c-4.11,3.22-5.22,4.08-6.78,5.31l-2.17,1.69c-2.24,1.73-3.41,2.64-4.5,3.51a9.54,9.54,0,0,1-1.45,1c-.08,0-.19-.11-.22-.23a1,1,0,0,0-.21-.37c-.08-.08-.39-.47-.69-.85l-1.72-2.18c-1.12-1.41-1.31-1.73-1.07-1.73a16.59,16.59,0,0,0,1.6-1.2c.83-.65,1.9-1.49,2.38-1.86s1.46-1.11,2.16-1.66c2.53-2,4.68-3.64,5.72-4.44,1.81-1.38,2.43-1.86,3.16-2.46.39-.33.81-.64.93-.72s.22-.14,0-.32-.48-.36-.76-.6c-.77-.63-.83-.68-1.26-1C37,36.32,36,35.56,35,34.79,33.3,33.44,31.9,32.34,30.15,31c-.46-.35-.85-.67-.89-.71s-1.91-1.48-3.64-2.77a4.38,4.38,0,0,1-1-.91.51.51,0,0,1,.19-.3,14.61,14.61,0,0,0,1-1.2l1.4-1.82c.33-.42.78-1,1-1.32a2.23,2.23,0,0,1,.49-.55,1.32,1.32,0,0,1,.43.29c.3.27,1,.81,3.18,2.5.65.5,2.58,2,5.35,4.2.77.62,1.84,1.46,2.38,1.88,2.1,1.62,3.46,2.72,3.74,3l.29.3.07-.34c0-.2.12-7.57.12-7.57V18.51h6.53Z" style="fill: #075676"/>
  </g>
</svg>
