<?xml version="1.0" encoding="utf-8"?>
<svg version="1.1" id="Calque_1" xmlns="http://www.w3.org/2000/svg" xmlns:xlink="http://www.w3.org/1999/xlink" x="0px" y="0px"
	 viewBox="0 0 640 640" style="enable-background:new 0 0 640 640;" xml:space="preserve">
<style type="text/css">
	.st0{fill:#075676;}
</style>
<g>
	<g transform="translate(0.000000,686.000000) scale(0.100000,-0.100000)">
		<path class="st0" d="M2891.9,6452.8c-564.8-64.6-1084.6-289.3-1519.4-658.8c-99.7-85-300.8-295.1-382.5-399.7
			c-119.3-152.8-212.5-303.2-303.2-486.3c-145.5-294.2-224-549.3-271.4-881.1c-20.4-143-20.4-587.7,0-730.7
			c46.6-331,125.9-586.8,271.4-881.1C1081.5,1616.6,1822,1058.4,2698.2,899c302.4-54.8,701.3-54.8,1003.7,0
			c754.4,137.3,1414.8,573,1839.8,1213.7c236.2,356.4,380.1,740.5,443,1183.5c20.4,143,20.4,587.7,0,730.7
			c-47.4,331.8-125.9,586.8-271.4,881.1c-138.1,278.7-283.6,485.5-498.6,706.2c-246.8,253.4-461,409.5-776.5,564.8
			c-282.8,139.8-545.2,220.7-863.9,266.5C3446,6463.4,3027.5,6468.3,2891.9,6452.8z M3952.9,3660.4V2156.5h-229.8H3487v641.9
			c4,352.3,0.7,644.1-2.6,647.3c-3.3,3.3-20.4-6.5-37.6-22.1c-18-15.5-62.1-51.5-99.7-80.9c-287.7-225.6-365.4-285.3-474.9-371.9
			c-69.5-53.9-137.3-107.1-152-118.5c-156.9-121-238.7-184.7-314.7-246c-49.9-40-95.6-72.7-101.4-72.7c-5.7,0-13.1,7.4-15.5,16.3
			c-2.5,9-9.8,21.3-14.7,26.2c-5.7,5.7-27,32.7-48.2,59.7c-21.3,27-75.2,95.6-120.1,152.8c-78.5,98.9-91.5,121-75.2,121
			c4.1,0,53.9,37.6,112,84.2c58,45.8,133.2,104.6,166.7,130c33.5,25.3,102.2,77.6,151.2,116.1c177.4,138.9,327.8,255,400.5,310.6
			c126.7,96.4,170,130,221.5,172.5c27,22.9,56.4,45,65.4,50.7c15.5,9,15.5,9.8-1.6,22.1c-9,6.5-33.5,25.3-53.1,41.7
			c-53.9,44.1-58,47.4-88.3,69.5c-15.5,10.6-84.2,63.8-152.8,117.7c-121,94.8-219,171.6-341.6,265.6c-31.9,24.5-59.7,46.6-62.1,49.9
			c-4.1,4.9-134,103.8-255,193.7c-40,29.4-71.9,58-71.9,63.8c0,5.7,5.7,14.7,13.1,21.3c7.4,5.7,38.4,44.1,69.5,84.2
			c31.1,40.9,75.2,98.1,98.1,127.5s54.8,70.3,70.3,92.4c15.5,21.3,31.1,38.4,34.3,38.4c4.1,0,17.2-9,30.2-20.4
			c21.3-18.8,68.7-56.4,222.3-174.9c45.8-35.1,180.6-141.4,374.3-294.2c53.9-43.3,129.1-102.2,166.7-131.6
			c147.1-113.6,241.9-190.4,261.5-210.9l20.4-21.3l4.9,23.7c3.3,13.9,8.3,529.6,8.3,529.6l0.8,503.2h228.4h228.4V3660.4z"/>
	</g>
</g>
</svg>
