<?xml version="1.0" encoding="UTF-8"?>
<svg xmlns="http://www.w3.org/2000/svg" xmlns:xlink="http://www.w3.org/1999/xlink" width="24" height="24" viewBox="0 0 24 24" version="1.1">
<g id="surface1">
<path style=" stroke:none;fill-rule:evenodd;fill:rgb(100%,100%,100%);fill-opacity:1;" d="M 9.199219 0 L 3.9375 3.695312 L 3.9375 10.96875 L 14.726562 18.121094 L 14.726562 21.695312 L 3.9375 14.546875 L 3.9375 21.878906 L 7.9375 19.089844 L 15.394531 24 L 20.0625 20.847656 L 20.0625 14.546875 L 17.273438 12.636719 L 20.0625 10.789062 L 20.0625 3.394531 L 16.0625 0.726562 L 9.199219 5.453125 Z M 7.9375 8.183594 L 7.9375 2.667969 L 5.273438 4.605469 L 5.273438 9.9375 L 12 14.484375 L 13.332031 15.394531 L 14.667969 16.242188 L 15.9375 17.152344 L 18.546875 15.273438 L 15.9375 13.574219 L 14.667969 12.667969 L 10.605469 9.9375 L 18.546875 4.363281 L 15.9375 2.667969 Z M 6.605469 18.183594 L 5.273438 17.273438 L 5.273438 19.089844 Z M 18.546875 17.273438 L 18.546875 20 L 16.0625 21.667969 L 16.0625 18.910156 Z M 18.546875 9.9375 L 18.546875 6.242188 L 13.332031 9.9375 L 15.9375 11.636719 Z M 18.546875 9.9375 "/>
</g>
</svg>
